Before Night Falls is based on the autobiography of the same name by Cuban poet and novelist Reinaldo Arenas. In the movie, Arenas, who was openly gay, is born in Oriente in 1943 and raised by his single mother and her parents, who soon move the entire family to Holguín. After moving to Havana in the sixties to continue his studies, Reinaldo begins to explore his ambitions, as well as his sexuality. After receiving an honorary mention in a writing contest, Arenas is offered the chance to publish his first work. Through his work and friendships with other openly gay men (such as Pepe Malas and Tomas Diego), Arenas manages to find himself.

The political climate in Cuba becomes increasingly dangerous, and in the early seventies Arenas is arrested for allegedly sexually assaulting minors, and for publishing abroad without official consent. In the next decade, Arenas is in and out of prison, attempting and failing to leave the country several times.

In 1980, Arenas finally leaves Cuba for the US, starting a new life with his close friend and lover Lazaro Gomez Carilles. A few years later, Arenas is diagnosed with AIDS, and after spending several years suffering, passes away in 1990 with the help of Lazaro.

Cast

    * Javier Bardem as Reinaldo Arenas
    * Olivier Martinez as Lazaro Gomez Carilles
    * Andrea Di Stefano as Pepe Malas
    * Santiago Magill as Tomas Diego
    * John Ortiz as Juann Abreu
    * Héctor Babenco as Virgilio Pinera
    * Manuel González as Jose Lezama Lima
    * Francisco Gattorno as Jorge Camacho
    * Marisol Padilla Sánchez as Margarita Camacho
    * Johnny Depp as Bon Bon & Lt. Victor
    * Michael Wincott as Herberto Zorilla Ochoa
    * Sean Penn as Cuco Sanchez

General Cd 1
Full Name                        : Before Night Falls (1).divx
Formation                        : DivX
Formation/Info                   : Hack of AVI
File\\\'s Size                      : 672 MiB
Duration                         : 1h 12mn
Summary BitRate                  : 1299 Kbps

Video
Formation                        : MPEG-4 Visual
Format settings, BVOP            : Yes
Format settings, QPel            : No
Format settings, GMC             : 0 warppoint
Format settings, Matrix          : Default
Codec ID                         : DIV3
Codec ID/Hint                    : DivX 3 Low
Duration                         : 1h 12mn
Data\\\'s speed                     : 1128 Kbps
Width                            : 640 εικονοστοιχεία
High                             : 352 εικονοστοιχεία
Efficiency                       : 16/9
Frame\\\'s Pace                     : 23.976 fps
Analysis                         : 8 bits
Scan type                        : Progressive
Bits/(Picture*Frame)             : 0.209
Stream size                      : 583 MiB
Title                            : Video

Audio
Formation                        : MPEG Audio
Format version                   : Version 1 / Layer 3
Codec ID                         : 55
Codec ID/Hint                    : MP3
Duration                         : 1h 12mn
Bit rate mode                    : CBR
Data\\\'s Speed                     : 160 Kbps
Channel (a)                      : 2 κανάλια
Sampling\\\'s Frequency             : 44.1 KHz
Analysis                         : 16 bits
Stream size                      : 82.8 MiB
Title                            : Audio
Codec\\\'s Library                  : LAME3.88 (alpha)

Text
Formation                        : DivX Subtitle
Codec ID                         : DXSB
Codec ID/Info                    : Subtitle in AVI from DivX networks
Width                            : 720 εικονοστοιχεία
High                             : 576 εικονοστοιχεία
Analysis                         : 4 bits
Stream size                      : 1.24 MiB
Title                            : Subtitle - el;02
Subtitles                        : Greeks

General Cd 2
Full Name                        : Before Night Falls (2).divx
Formation                        : DivX
Formation/Info                   : Hack of AVI
File\\\'s Size                      : 663 MiB
Duration                         : 1h 59s
Summary BitRate                  : 1521 Kbps

Video
Formation                        : MPEG-4 Visual
Codec ID                         : DIV3
Codec ID/Hint                    : DivX 3 Low
Duration                         : 1h 59s
Data\\\'s speed                     : 1354 Kbps
High                             : 352 εικονοστοιχεία
Efficiency                       : 16/9
Analysis                         : 24 bits
Bits/(Picture*Frame)             : 0.251
Stream size                      : 591 MiB
Title                            : Video

Audio
Formation                        : MPEG Audio
Format version                   : Version 1 / Layer 3
Codec ID                         : 55
Codec ID/Hint                    : MP3
Duration                         : 1h 59s
Bit rate mode                    : CBR
Data\\\'s Speed                     : 160 Kbps
Channel (a)                      : 2 κανάλια
Sampling\\\'s Frequency             : 44.1 KHz
Analysis                         : 16 bits
Stream size                      : 69.8 MiB
Title                            : Audio

Text
Formation                        : DivX Subtitle
Codec ID                         : DXSB
Codec ID/Info                    : Subtitle in AVI from DivX networks
High                             : 576 εικονοστοιχεία
Analysis                         : 4 bits
Stream size                      : 759 KiB
Title                            : Subtitle - el;02
Subtitles                        : Greeks

